<?xml version="1.0" encoding="UTF-8"?>
<svg version="1.1" xmlns="http://www.w3.org/2000/svg" width="2138" height="315">
<path d="M0 0 C1.03550995 -0.00761353 2.0710199 -0.01522705 3.13790894 -0.02307129 C5.31782641 -0.03381414 7.49779512 -0.03674926 9.67773438 -0.03222656 C12.96314352 -0.03125856 16.24617942 -0.07286121 19.53125 -0.1171875 C31.90119233 -0.18820644 42.37887139 0.65948253 53.8671875 5.46875 C54.68171387 5.80922363 55.49624023 6.14969727 56.33544922 6.50048828 C64.63119955 10.2931172 72.12840788 15.34558483 78.8671875 21.46875 C79.77082031 22.27957031 80.67445313 23.09039062 81.60546875 23.92578125 C97.6723465 39.10375843 107.15681551 59.36714542 108.1484375 81.5546875 C108.70194808 102.77902169 104.37179549 123.82718405 90.6171875 140.59375 C89.7096875 141.5425 88.8021875 142.49125 87.8671875 143.46875 C87.2071875 143.46875 86.5471875 143.46875 85.8671875 143.46875 C86.1971875 144.45875 86.5271875 145.44875 86.8671875 146.46875 C98.86397756 147.37416812 110.66956948 141.43489327 119.875 134.05859375 C127.75536667 127.20138949 134.19592641 119.33033243 140.69140625 111.1796875 C149.11588869 101.00746861 159.4474069 95.41365043 172.64453125 94.08984375 C183.54314582 93.74684167 192.37260199 95.70995031 200.72265625 102.90625 C201.8671875 104.46875 201.8671875 104.46875 201.8671875 108.46875 C200.90039062 108.42234375 199.93359375 108.3759375 198.9375 108.328125 C190.86596147 108.10435958 184.0303595 108.18517314 176.8671875 112.46875 C175.86599632 113.4675574 174.86575175 114.46731631 173.8671875 115.46875 C173.2071875 115.46875 172.5471875 115.46875 171.8671875 115.46875 C171.609375 116.01402344 171.3515625 116.55929688 171.0859375 117.12109375 C169.66107067 119.86578914 168.02745502 122.42177215 166.3671875 125.03125 C163.38567178 129.75031957 160.77658453 134.56632233 158.29101562 139.56347656 C150.06866951 155.97569507 140.07201315 166.52407691 122.41015625 172.70703125 C119.90983902 173.4559742 117.43408553 174.00329811 114.8671875 174.46875 C119.48202977 179.08359227 128.8207601 179.38207726 135.19238281 179.51855469 C148.83255323 179.18253379 161.62358646 175.33711323 174.52734375 171.19311523 C185.5718058 167.77398763 201.0435676 167.31542388 211.6640625 172.12890625 C221.01761049 177.81732285 221.01761049 177.81732285 222.578125 182.6875 C222.67351562 183.2753125 222.76890625 183.863125 222.8671875 184.46875 C223.5271875 184.46875 224.1871875 184.46875 224.8671875 184.46875 C224.8671875 185.78875 224.8671875 187.10875 224.8671875 188.46875 C217.40654234 187.71004032 217.40654234 187.71004032 214.4921875 186.40625 C206.19315715 183.44231059 197.61247867 185.99001949 189.8671875 189.46875 C184.12365165 192.77886196 179.46064398 196.75932812 174.890625 201.51171875 C163.93360419 212.10914622 151.40242732 219.87758533 135.68359375 219.69140625 C125.91742323 218.91932342 116.12821841 216.60770519 106.8671875 213.46875 C113.45865293 216.98919176 119.95646087 219.93259635 126.9921875 222.40625 C138.91008762 226.70416379 148.40322826 233.69282099 154.8046875 244.84375 C157.12298977 252.75325188 157.38432757 259.62119565 154.8671875 267.46875 C153.5471875 267.46875 152.2271875 267.46875 150.8671875 267.46875 C149.83046105 265.82467699 148.83540605 264.15407805 147.8671875 262.46875 C145.53211001 260.48589023 145.53211001 260.48589023 142.8046875 258.84375 C141.92683594 258.27398437 141.04898437 257.70421875 140.14453125 257.1171875 C132.25589687 253.14936425 124.93985498 252.01487701 116.1796875 252.21875 C115.28185547 252.22390625 114.38402344 252.2290625 113.45898438 252.234375 C109.70533172 252.27837386 106.11046424 252.43376188 102.390625 252.96875 C86.71160414 255.19371083 69.19515812 254.8546448 55.8671875 245.46875 C46.39501105 238.2184421 40.89443252 229.84576047 35.8671875 219.15625 C32.45534665 212.20653724 28.7009374 208.32983888 21.4296875 205.59375 C14.02664855 203.50539273 8.23311572 204.0013109 1.24609375 207.10546875 C-6.09734354 211.31377682 -9.30830771 218.53922965 -13.01220703 225.81738281 C-20.05376633 239.30667561 -30.94400489 247.55648695 -45.1328125 252.46875 C-49.59167189 253.66375419 -54.04538623 253.65861052 -58.6328125 253.65625 C-59.46014893 253.65906982 -60.28748535 253.66188965 -61.13989258 253.66479492 C-66.53753678 253.63091744 -71.80032412 253.23358923 -77.15820312 252.59667969 C-92.88424675 250.73332235 -105.65377712 252.46909056 -119.1328125 261.46875 C-121.56565957 263.5464756 -122.08779676 264.33370278 -123.1328125 267.46875 C-124.1228125 267.46875 -125.1128125 267.46875 -126.1328125 267.46875 C-129.35516039 259.93173289 -130.10024121 253.59163167 -127.1171875 245.82421875 C-119.96317494 230.72381882 -108.04913162 225.4880333 -93.10180664 219.75268555 C-85.69978082 216.87706427 -79.08399983 213.48752199 -73.1328125 208.15625 C-72.5553125 207.64449219 -71.9778125 207.13273438 -71.3828125 206.60546875 C-70.9703125 206.23035156 -70.5578125 205.85523438 -70.1328125 205.46875 C-70.94621094 205.90445313 -71.75960937 206.34015625 -72.59765625 206.7890625 C-79.30706223 210.27584041 -85.99694923 213.3277855 -93.1328125 215.84375 C-93.83784912 216.09398926 -94.54288574 216.34422852 -95.26928711 216.60205078 C-107.02745638 220.630144 -118.49683503 220.64866351 -129.8203125 215.16796875 C-136.36159746 211.24514458 -141.94748792 206.27206842 -147.64672852 201.2487793 C-157.6149641 192.4770884 -167.82955633 184.57381544 -181.7734375 185.12890625 C-185.5097503 185.66708376 -188.65957529 187.00633433 -192.1328125 188.46875 C-193.1228125 188.46875 -194.1128125 188.46875 -195.1328125 188.46875 C-195.66462685 185.63240679 -195.8636831 184.20179427 -195.1328125 181.46875 C-190.09166615 174.9055184 -183.18103336 170.95012847 -175.1328125 169.46875 C-159.572664 167.44114134 -145.87918315 170.95123755 -131.0703125 175.5234375 C-116.30540096 179.93398025 -101.66380575 181.23104043 -87.1328125 175.46875 C-87.1328125 175.13875 -87.1328125 174.80875 -87.1328125 174.46875 C-87.94363281 174.32179687 -88.75445312 174.17484375 -89.58984375 174.0234375 C-104.25236404 171.053381 -116.03164286 164.2084343 -124.625 151.70385742 C-128.83739109 145.25181788 -132.08161442 138.47501265 -135.24780273 131.46411133 C-139.95866887 121.21771202 -146.20329989 113.68349371 -156.734375 109.22265625 C-162.75632537 107.32976306 -169.02714697 108.42948778 -175.1328125 109.46875 C-175.1328125 106.31933601 -174.80798623 104.20386082 -172.63671875 101.83984375 C-163.60626886 94.59004595 -153.43575382 93.37531329 -142.1328125 94.46875 C-126.00430516 97.68355383 -115.79037029 107.09082903 -106.1953125 119.96875 C-97.02303435 132.1749491 -84.14092123 142.46658767 -69.1328125 146.46875 C-65.78107068 146.67702297 -62.48469552 146.65420254 -59.1328125 146.46875 C-60.48279635 143.45268853 -62.00671724 141.43381661 -64.3203125 139.09375 C-72.76948809 129.57082501 -76.50523856 117.67425477 -79.1328125 105.46875 C-79.32617188 104.58058594 -79.51953125 103.69242187 -79.71875 102.77734375 C-82.85579359 77.71058975 -78.58776162 53.98118062 -63.5625 33.4921875 C-48.18136713 14.35232119 -25.05868384 0.00520327 0 0 Z " fill="#F4F5F5" transform="translate(216.1328125,23.53125)"/>
<path d="M0 0 C37.95 0 75.9 0 115 0 C115 11.22 115 22.44 115 34 C91.24 34 67.48 34 43 34 C43.33 42.91 43.66 51.82 44 61 C66.11 61 88.22 61 111 61 C111 72.55 111 84.1 111 96 C107.30506242 96.92373439 104.53693023 97.12107386 100.76269531 97.11352539 C99.50169006 97.11344986 98.24068481 97.11337433 96.94146729 97.11329651 C95.57035279 97.10819028 94.19923869 97.1029743 92.828125 97.09765625 C91.42136689 97.09579028 90.01460812 97.09436722 88.60784912 97.09336853 C84.91219273 97.08955744 81.21657587 97.0797392 77.52093506 97.06866455 C73.74703516 97.05842014 69.97312866 97.05380957 66.19921875 97.04882812 C58.79944429 97.03864682 51.39977829 97.01907159 44 97 C44 107.89 44 118.78 44 130 C49.25808594 129.98839844 54.51617188 129.97679687 59.93359375 129.96484375 C63.2558606 129.95973691 66.57812264 129.95492313 69.90039062 129.95117188 C75.17880248 129.94518375 80.45719707 129.93808428 85.7355957 129.92456055 C89.98901115 129.91373056 94.24240809 129.90772293 98.49583626 129.90512276 C100.12221633 129.90326871 101.74859534 129.89964848 103.37496758 129.89426994 C105.64510193 129.88705802 107.91515885 129.88600912 110.18530273 129.88647461 C111.47991928 129.884254 112.77453583 129.88203339 114.10838318 129.87974548 C117 130 117 130 118 131 C118.15806531 132.92478813 118.251135 134.8549921 118.31640625 136.78515625 C118.35830078 137.95498047 118.40019531 139.12480469 118.44335938 140.33007812 C118.48267578 141.56177734 118.52199219 142.79347656 118.5625 144.0625 C118.60568359 145.29806641 118.64886719 146.53363281 118.69335938 147.80664062 C118.79984198 150.87097335 118.90185424 153.93539073 119 157 C119.33773437 156.04738281 119.67546875 155.09476563 120.0234375 154.11328125 C120.47390696 152.8463359 120.92443067 151.57940984 121.375 150.3125 C122.03628906 148.45044922 122.03628906 148.45044922 122.7109375 146.55078125 C123.48176419 144.42750408 124.27797086 142.31279426 125.125 140.21875 C126.06618603 137.83217114 126.56728766 135.52415532 127 133 C127.66 133 128.32 133 129 133 C129 131.35 129 129.7 129 128 C129.66 128 130.32 128 131 128 C131 126.02 131 124.04 131 122 C131.66 122 132.32 122 133 122 C133.12375 121.01 133.2475 120.02 133.375 119 C133.95194727 114.91119976 134.94963654 110.99138113 136 107 C136.66 107 137.32 107 138 107 C138 105.68 138 104.36 138 103 C138.66 103 139.32 103 140 103 C140 101.35 140 99.7 140 98 C140.66 98 141.32 98 142 98 C141.95875 97.278125 141.9175 96.55625 141.875 95.8125 C142.01096302 92.75333202 142.81004784 90.79988743 144 88 C144.36871088 86.34080104 144.71281674 84.6752357 145 83 C145.66 83 146.32 83 147 83 C147 81.35 147 79.7 147 78 C147.66 78 148.32 78 149 78 C148.96003906 77.278125 148.92007813 76.55625 148.87890625 75.8125 C149.01062755 72.75316653 149.71228925 70.79051559 150.9375 68 C152.39196601 64.66359053 153.39039655 61.59345193 154 58 C154.66 58 155.32 58 156 58 C156 56.68 156 55.36 156 54 C156.66 54 157.32 54 158 54 C158.185625 52.453125 158.185625 52.453125 158.375 50.875 C158.93889814 47.37883154 159.78682059 44.31602373 161 41 C161.66 41 162.32 41 163 41 C163 39.35 163 37.7 163 36 C163.66 36 164.32 36 165 36 C165 34.35 165 32.7 165 31 C165.66 31 166.32 31 167 31 C167.12246094 30.33613281 167.24492188 29.67226562 167.37109375 28.98828125 C168.13656055 25.35112535 169.09131076 21.77369348 170.0625 18.1875 C170.24876953 17.49462891 170.43503906 16.80175781 170.62695312 16.08789062 C171.08321198 14.39154359 171.54140954 12.6957182 172 11 C172.66 11 173.32 11 174 11 C173.95875 10.29875 173.9175 9.5975 173.875 8.875 C174 6 174 6 176 0 C194.48 0 212.96 0 232 0 C233.98 6.93 233.98 6.93 236 14 C236.99 15.98 237.98 17.96 239 20 C239 21.32 239 22.64 239 24 C239.66 24 240.32 24 241 24 C241.27714844 24.99902344 241.55429687 25.99804688 241.83984375 27.02734375 C242.20555549 28.33077791 242.57145038 29.63416069 242.9375 30.9375 C243.21110352 31.9265332 243.21110352 31.9265332 243.49023438 32.93554688 C244.22596101 36.23821173 244.22596101 36.23821173 246 39 C246.04063832 40.66617115 246.042721 42.33388095 246 44 C246.66 44 247.32 44 248 44 C248.33 45.65 248.66 47.3 249 49 C249.33 49 249.66 49 250 49 C250 50.98 250 52.96 250 55 C250.66 55 251.32 55 252 55 C254.11161731 64.41002278 254.11161731 64.41002278 255 69 C255.66 69 256.32 69 257 69 C257 70.65 257 72.3 257 74 C257.66 74 258.32 74 259 74 C259 75.65 259 77.3 259 79 C259.66 79 260.32 79 261 79 C261.26554687 79.80824219 261.53109375 80.61648437 261.8046875 81.44921875 C262.33449219 83.05216797 262.33449219 83.05216797 262.875 84.6875 C263.22304688 85.74324219 263.57109375 86.79898438 263.9296875 87.88671875 C264.87331366 90.63149994 265.89491289 93.31692815 267 96 C267.33 96 267.66 96 268 96 C268.2475 96.886875 268.495 97.77375 268.75 98.6875 C269.79698489 102.34446866 270.89295171 105.98578528 272 109.625 C272.33 110.71039063 272.66 111.79578125 273 112.9140625 C273.89221877 115.66739385 274.88798421 118.32917636 276 121 C276.33 121 276.66 121 277 121 C277 122.98 277 124.96 277 127 C277.66 127 278.32 127 279 127 C279.33 129.97 279.66 132.94 280 136 C280.66 136 281.32 136 282 136 C282 137.65 282 139.3 282 141 C282.66 141 283.32 141 284 141 C284 142.65 284 144.3 284 146 C284.66 146 285.32 146 286 146 C286 147.65 286 149.3 286 151 C286.66 151 287.32 151 288 151 C288.53532823 152.55759343 289.05265378 154.12138045 289.5625 155.6875 C289.85253906 156.55761719 290.14257812 157.42773438 290.44140625 158.32421875 C291.0555933 161.26630357 290.66383847 163.10498558 290 166 C283.93108308 166.0493933 277.86228287 166.08571643 271.79321289 166.10986328 C269.728088 166.11992835 267.66297737 166.13358154 265.59790039 166.15087891 C262.63163736 166.17510493 259.66556256 166.18647797 256.69921875 166.1953125 C255.31158577 166.21079636 255.31158577 166.21079636 253.8959198 166.22659302 C253.03525406 166.22674408 252.17458832 166.22689514 251.2878418 166.22705078 C250.53061325 166.231492 249.7733847 166.23593323 248.99320984 166.24050903 C247 166 247 166 244 164 C243.8125 160.875 243.8125 160.875 244 158 C243.34 158 242.68 158 242 158 C238.55580866 148.58997722 238.55580866 148.58997722 239 144 C238.34 144 237.68 144 237 144 C236.67 142.35 236.34 140.7 236 139 C235.67 139 235.34 139 235 139 C235 137.35 235 135.7 235 134 C214.54 134.33 194.08 134.66 173 135 C172.34 137.31 171.68 139.62 171 142 C170.34 142 169.68 142 169 142 C169 143.98 169 145.96 169 148 C168.67 148 168.34 148 168 148 C167.67 149.65 167.34 151.3 167 153 C166.34 153 165.68 153 165 153 C164.855625 154.258125 164.71125 155.51625 164.5625 156.8125 C164.26251314 159.42667123 163.84186703 161.47439892 163 164 C162.34 164 161.68 164 161 164 C161 164.66 161 165.32 161 166 C107.33333333 166 53.66666667 166 0 166 C0 111.22 0 56.44 0 0 Z M204 44 C202.64381501 45.12534105 202.64381501 45.12534105 202.9375 48.0625 C202.958125 49.031875 202.97875 50.00125 203 51 C202.34 51 201.68 51 201 51 C200.72285156 51.99902344 200.44570313 52.99804688 200.16015625 54.02734375 C199.79444451 55.33077791 199.42854962 56.63416069 199.0625 57.9375 C198.88009766 58.59685547 198.69769531 59.25621094 198.50976562 59.93554688 C197.11328125 64.88671875 197.11328125 64.88671875 196 66 C195.95936168 67.66617115 195.957279 69.33388095 196 71 C195.34 71 194.68 71 194 71 C192.57741188 74.82320557 191.75957724 77.91281305 192 82 C191.34 82 190.68 82 190 82 C189.86722656 82.63808594 189.73445312 83.27617187 189.59765625 83.93359375 C189.42105469 84.75988281 189.24445313 85.58617187 189.0625 86.4375 C188.88847656 87.26121094 188.71445312 88.08492187 188.53515625 88.93359375 C188 91 188 91 187 92 C186.95919217 93.99958364 186.95745644 96.00045254 187 98 C186.34 98 185.68 98 185 98 C185 98.99 185 99.98 185 101 C197.54 101 210.08 101 223 101 C222.39144973 97.95724864 221.77610498 94.99354776 221 92 C220.34 92 219.68 92 219 92 C219 90.02 219 88.04 219 86 C218.67 86 218.34 86 218 86 C217.73445313 84.91460937 217.46890625 83.82921875 217.1953125 82.7109375 C216.83866918 81.26559353 216.4818912 79.82028278 216.125 78.375 C215.95097656 77.66214844 215.77695312 76.94929688 215.59765625 76.21484375 C214.57145662 72.07203784 213.41209271 68.03273322 212 64 C211.34 64 210.68 64 210 64 C210 62.02 210 60.04 210 58 C209.67 58 209.34 58 209 58 C208.67 56.35 208.34 54.7 208 53 C207.67 53 207.34 53 207 53 C206.34 50.03 205.68 47.06 205 44 C204.67 44 204.34 44 204 44 Z M117 158 C117 159.65 117 161.3 117 163 C117.33 163 117.66 163 118 163 C118 161.35 118 159.7 118 158 C117.67 158 117.34 158 117 158 Z " fill="#FDFDFE" transform="translate(501,83)"/>
<path d="M0 0 C16.190625 -0.020625 32.38125 -0.04125 49.0625 -0.0625 C56.7196521 -0.07615601 56.7196521 -0.07615601 64.53149414 -0.09008789 C70.78405762 -0.09460449 70.78405762 -0.09460449 73.71482849 -0.09544373 C75.75368976 -0.09697531 77.79255015 -0.10048409 79.83140564 -0.10557556 C82.92676355 -0.11291631 86.0220663 -0.11390527 89.11743164 -0.11352539 C90.01971276 -0.1171235 90.92199389 -0.12072161 91.85161686 -0.12442875 C96.67648743 -0.11652501 101.242313 0.1863949 106 1 C106 1.66 106 2.32 106 3 C107.10021484 3.17789063 107.10021484 3.17789063 108.22265625 3.359375 C114.85148759 4.88838814 121.30293045 9.19617887 126 14 C128.87743249 18.67392473 131 22.44890141 131 28 C131.66 28 132.32 28 133 28 C133 36.91 133 45.82 133 55 C132.34 55 131.68 55 131 55 C130.9175 55.66 130.835 56.32 130.75 57 C129.77178797 60.91284814 128.40658028 64.7301068 126 68 C123.86328125 68.734375 123.86328125 68.734375 122 69 C122 69.66 122 70.32 122 71 C121.34 71 120.68 71 120 71 C120 71.66 120 72.32 120 73 C118.35 73.66 116.7 74.32 115 75 C115 75.66 115 76.32 115 77 C115.515625 77.0825 116.03125 77.165 116.5625 77.25 C120.04455732 78.32140225 122.87200885 80.13523605 126 82 C126 82.66 126 83.32 126 84 C127.485 84.495 127.485 84.495 129 85 C129 85.66 129 86.32 129 87 C129.66 87 130.32 87 131 87 C131 87.66 131 88.32 131 89 C131.66 89 132.32 89 133 89 C133 89.99 133 90.98 133 92 C133.66 92 134.32 92 135 92 C135.67057887 93.7902061 136.3363469 95.58221489 137 97.375 C137.37125 98.37273437 137.7425 99.37046875 138.125 100.3984375 C139 103 139 103 139 105 C139.66 105 140.32 105 141 105 C141 112.92 141 120.84 141 129 C140.34 129 139.68 129 139 129 C138.566875 130.794375 138.566875 130.794375 138.125 132.625 C137.2475666 136.14726836 136.19979363 139.57201821 135 143 C134.34 143 133.68 143 133 143 C133 143.66 133 144.32 133 145 C132.34 145 131.68 145 131 145 C130.731875 145.598125 130.46375 146.19625 130.1875 146.8125 C129.00082594 148.99847854 127.90400887 150.41332594 126 152 C125.34 152 124.68 152 124 152 C124 152.66 124 153.32 124 154 C123.34 154 122.68 154 122 154 C122 154.66 122 155.32 122 156 C120.68 156 119.36 156 118 156 C118 156.66 118 157.32 118 158 C117.01 158 116.02 158 115 158 C115 158.66 115 159.32 115 160 C104.39370816 163.04954865 104.39370816 163.04954865 99.875 163.625 C97.10796961 163.68879347 97.10796961 163.68879347 96 165 C93.01698418 165.09528328 90.05726813 165.12550869 87.07397461 165.11352539 C86.12228425 165.11364593 85.17059389 165.11376646 84.19006443 165.11389065 C81.09413417 165.11314128 77.99826331 165.10551195 74.90234375 165.09765625 C72.9971113 165.09618691 71.09187844 165.09516615 69.18664551 165.09460449 C62.10359087 165.08935074 55.02054486 165.07538967 47.9375 165.0625 C32.118125 165.041875 16.29875 165.02125 0 165 C0 110.55 0 56.1 0 0 Z M46 28 C46 39.22 46 50.44 46 62 C52.496875 62.0309375 52.496875 62.0309375 59.125 62.0625 C61.15744873 62.07615601 61.15744873 62.07615601 63.23095703 62.09008789 C64.31231934 62.09258545 65.39368164 62.09508301 66.5078125 62.09765625 C68.15740967 62.10551147 68.15740967 62.10551147 69.84033203 62.11352539 C72.97618105 62.0008558 75.92059383 61.58626376 79 61 C79 60.34 79 59.68 79 59 C79.99 59 80.98 59 82 59 C82 58.34 82 57.68 82 57 C82.66 57 83.32 57 84 57 C84 56.01 84 55.02 84 54 C84.66 54 85.32 54 86 54 C86.97157379 50.03212229 87.06260227 46.50991991 86.8125 42.4375 C86.75707031 41.32246094 86.70164062 40.20742187 86.64453125 39.05859375 C85.63210001 34.2541473 82.95086136 32.63390757 79 30 C74.69403509 28.27746287 71.13089977 27.7606581 66.5078125 27.8046875 C64.88576904 27.81218018 64.88576904 27.81218018 63.23095703 27.81982422 C61.1985083 27.84713623 61.1985083 27.84713623 59.125 27.875 C54.79375 27.91625 50.4625 27.9575 46 28 Z M46 93 C46 106.53 46 120.06 46 134 C50.805625 134.04125 55.61125 134.0825 60.5625 134.125 C62.06498291 134.14320801 63.56746582 134.16141602 65.11547852 134.18017578 C66.31615967 134.1851709 67.51684082 134.19016602 68.75390625 134.1953125 C70.58417358 134.21102295 70.58417358 134.21102295 72.45141602 134.22705078 C77.25998831 133.91938155 81.45664237 132.51445254 86 131 C86 130.34 86 129.68 86 129 C86.598125 128.7525 87.19625 128.505 87.8125 128.25 C90.5208957 126.70234531 91.47203846 125.74946753 93 123 C93.41811799 119.97193761 93.37309476 116.98905221 93.3125 113.9375 C93.31572266 113.12216797 93.31894531 112.30683594 93.32226562 111.46679688 C93.26918731 105.59440488 91.80110566 102.59300267 88 98 C87.34 98 86.68 98 86 98 C86 97.34 86 96.68 86 96 C82.37 95.34 78.74 94.68 75 94 C75 93.67 75 93.34 75 93 C65.43 93 55.86 93 46 93 Z " fill="#FDFDFE" transform="translate(1977,82)"/>
<path d="M0 0 C15.51 0 31.02 0 47 0 C47 20.13 47 40.26 47 61 C66.47 61 85.94 61 106 61 C106 40.87 106 20.74 106 0 C121.51 0 137.02 0 153 0 C153 54.45 153 108.9 153 165 C137.49 165 121.98 165 106 165 C106 141.9 106 118.8 106 95 C86.53 95 67.06 95 47 95 C47 118.1 47 141.2 47 165 C31.49 165 15.98 165 0 165 C0 110.55 0 56.1 0 0 Z " fill="#FDFDFE" transform="translate(1629,82)"/>
<path d="M0 0 C15.18 0 30.36 0 46 0 C46.04898437 7.18910156 46.09796875 14.37820312 46.1484375 21.78515625 C46.18386219 26.36524765 46.2198441 30.94532133 46.2578125 35.52539062 C46.31790021 42.7800022 46.37602986 50.03458925 46.421875 57.28930664 C46.45900518 63.14438253 46.50543687 68.99932028 46.55806351 74.85427666 C46.57646123 77.07751456 46.59162185 79.3007819 46.60334396 81.52406502 C45.30689599 103.79622519 45.30689599 103.79622519 52.5625 123.625 C53.036875 124.07875 53.51125 124.5325 54 125 C54.33 125.99 54.66 126.98 55 128 C55.66 128.33 56.32 128.66 57 129 C57 129.66 57 130.32 57 131 C58.32 131 59.64 131 61 131 C61 131.66 61 132.32 61 133 C69.25 133 77.5 133 86 133 C86 132.34 86 131.68 86 131 C87.32 131 88.64 131 90 131 C90.33 129.68 90.66 128.36 91 127 C91.66 127 92.32 127 93 127 C93 126.34 93 125.68 93 125 C93.66 125 94.32 125 95 125 C95.185625 124.2265625 95.185625 124.2265625 95.375 123.4375 C95.85974748 121.54698482 96.41578604 119.67468201 97 117.8125 C99.02765249 110.08207487 99.15709929 102.29487126 99.20532227 94.33959961 C99.21522186 93.31416046 99.22512146 92.28872131 99.23532104 91.23220825 C99.26668789 87.8722762 99.29159448 84.51233005 99.31640625 81.15234375 C99.33699725 78.81107738 99.35799426 76.46981455 99.37937927 74.1285553 C99.43437837 67.98840209 99.48388475 61.84821656 99.53222656 55.70800781 C99.59147294 48.32896671 99.65757814 40.94998421 99.72252655 33.57099152 C99.82025692 22.38069703 99.90930383 11.19036367 100 0 C115.51 0 131.02 0 147 0 C147.04010881 23.77561087 147.04010881 23.77561087 147.04882812 34.00585938 C147.05477759 40.95305151 147.06177238 47.90023031 147.07543945 54.84741211 C147.08640259 60.45602628 147.09230493 66.06462613 147.09487724 71.6732502 C147.09670753 73.79996529 147.10028087 75.9266797 147.10573006 78.0533886 C147.13008874 87.96535695 147.11688944 97.85724783 146.55639648 107.75610352 C146.51754113 108.45326697 146.47868578 109.15043043 146.43865299 109.86872005 C146.24857985 112.78997336 145.93129728 115.20610817 145 118 C144.73383035 120.76731942 144.55631192 123.53427101 144.37890625 126.30859375 C144.00546478 128.96118319 143.34070332 130.70397771 142 133 C141.34 133 140.68 133 140 133 C139.87238281 133.56460938 139.74476563 134.12921875 139.61328125 134.7109375 C138.96914164 137.11517835 138.15070349 139.33019647 137.1875 141.625 C136.87167969 142.40101563 136.55585937 143.17703125 136.23046875 143.9765625 C134.78313716 146.35661889 133.55872472 147.00225828 131 148 C131 148.66 131 149.32 131 150 C130.34 150 129.68 150 129 150 C129 150.66 129 151.32 129 152 C125.84907591 154.88084488 122.94237461 156.46685432 119 158 C118.67 158.66 118.34 159.32 118 160 C115.4375 160.625 115.4375 160.625 113 161 C113 161.66 113 162.32 113 163 C111.35 163 109.7 163 108 163 C108 163.66 108 164.32 108 165 C106.02 165 104.04 165 102 165 C101.67 166.65 101.34 168.3 101 170 C82.19 170 63.38 170 44 170 C44 168.68 44 167.36 44 166 C42.35 165.67 40.7 165.34 39 165 C39 164.34 39 163.68 39 163 C37.35 163 35.7 163 34 163 C34 162.34 34 161.68 34 161 C32.6078125 160.814375 32.6078125 160.814375 31.1875 160.625 C28 160 28 160 25 158 C25 157.34 25 156.68 25 156 C23.6078125 155.62875 23.6078125 155.62875 22.1875 155.25 C18.82214391 153.93025251 17.74084779 153.09484051 16 150 C16 149.34 16 148.68 16 148 C15.34 148 14.68 148 14 148 C14 147.34 14 146.68 14 146 C13.34 146 12.68 146 12 146 C12 145.01 12 144.02 12 143 C11.34 143 10.68 143 10 143 C9.15488176 141.27656245 8.32436646 139.54595947 7.5 137.8125 C7.0359375 136.84957031 6.571875 135.88664063 6.09375 134.89453125 C5.00407079 132.01077307 4.77722476 130.04645139 5 127 C4.34 127 3.68 127 3 127 C2.505 124.03 2.505 124.03 2 121 C1.67 121 1.34 121 1 121 C0.01500666 106.89374507 -0.13213085 92.84757613 -0.09765625 78.7109375 C-0.09578618 76.42737866 -0.09436507 74.1438194 -0.09336853 71.86026001 C-0.08958966 65.91254527 -0.07980013 59.96485579 -0.06866455 54.01715088 C-0.05652924 46.84734621 -0.05202611 39.67753299 -0.04621124 32.50772095 C-0.03658492 21.67179651 -0.01739624 10.83592727 0 0 Z " fill="#FDFDFE" transform="translate(1806,82)"/>
<path d="M0 0 C1.93791412 -0.00472824 1.93791412 -0.00472824 3.91497803 -0.009552 C5.31864455 -0.00776124 6.72231077 -0.00571004 8.12597656 -0.00341797 C9.57700619 -0.00409238 11.0280357 -0.00506355 12.47906494 -0.00631714 C15.51860633 -0.00778952 18.55811829 -0.00565557 21.59765625 -0.00097656 C25.47195679 0.00470007 29.34618774 0.00145195 33.22048569 -0.00454903 C36.21812451 -0.00818448 39.21574719 -0.00700207 42.21338654 -0.00442123 C43.64056659 -0.00375914 45.06774817 -0.004555 46.49492645 -0.00690079 C53.90304203 -0.01640037 61.18336583 0.00554595 68.51660156 1.12939453 C69.01160156 1.62439453 69.01160156 1.62439453 69.51660156 2.12939453 C71.17580052 2.49810541 72.84434427 2.82534775 74.51660156 3.12939453 C79.40549045 4.01828342 79.40549045 4.01828342 80.51660156 5.12939453 C80.60515317 7.79565484 80.63184829 10.43586568 80.61425781 13.10205078 C80.61284286 13.89969345 80.61142792 14.69733612 80.60997009 15.51914978 C80.60435473 18.07676889 80.59179968 20.63430171 80.57910156 23.19189453 C80.57408854 24.92171098 80.56952529 26.65152879 80.56542969 28.38134766 C80.55438031 32.63073006 80.53710543 36.88004765 80.51660156 41.12939453 C78.20660156 41.12939453 75.89660156 41.12939453 73.51660156 41.12939453 C73.51660156 40.46939453 73.51660156 39.80939453 73.51660156 39.12939453 C72.19660156 39.12939453 70.87660156 39.12939453 69.51660156 39.12939453 C69.51660156 38.46939453 69.51660156 37.80939453 69.51660156 37.12939453 C68.87722656 37.19126953 68.23785156 37.25314453 67.57910156 37.31689453 C64.78871737 37.14605468 63.25384861 36.72642453 60.70410156 35.75439453 C53.90150152 33.31332547 46.6619501 32.87461493 39.51660156 32.12939453 C39.51660156 31.46939453 39.51660156 30.80939453 39.51660156 30.12939453 C32.25660156 30.12939453 24.99660156 30.12939453 17.51660156 30.12939453 C17.51660156 30.78939453 17.51660156 31.44939453 17.51660156 32.12939453 C13.88660156 32.45939453 10.25660156 32.78939453 6.51660156 33.12939453 C6.51660156 33.78939453 6.51660156 34.44939453 6.51660156 35.12939453 C5.86691406 35.70560547 5.21722656 36.28181641 4.54785156 36.87548828 C1.93748818 39.77198765 1.97846597 41.34496642 2.01660156 45.19189453 C2.00628906 46.23474609 1.99597656 47.27759766 1.98535156 48.35205078 C2.26103305 51.22215816 2.26103305 51.22215816 4.36035156 52.93798828 C6.58839844 54.25444762 6.58839844 54.25444762 9.51660156 55.12939453 C9.51660156 55.78939453 9.51660156 56.44939453 9.51660156 57.12939453 C11.49660156 57.12939453 13.47660156 57.12939453 15.51660156 57.12939453 C15.51660156 57.78939453 15.51660156 58.44939453 15.51660156 59.12939453 C16.97066406 59.06751953 16.97066406 59.06751953 18.45410156 59.00439453 C22.21549957 58.99681107 25.59034029 59.73472626 29.23144531 60.62158203 C31.49485811 61.12456265 33.71330594 61.43643062 36.01660156 61.69189453 C39.51660156 62.12939453 39.51660156 62.12939453 40.51660156 63.12939453 C42.8447812 63.49700184 45.17844006 63.83181034 47.51660156 64.12939453 C47.51660156 64.78939453 47.51660156 65.44939453 47.51660156 66.12939453 C48.35449219 66.07783203 49.19238281 66.02626953 50.05566406 65.97314453 C54.08764491 66.15517527 57.1222232 67.2069876 60.89160156 68.62939453 C61.85259766 68.98710937 61.85259766 68.98710937 62.83300781 69.35205078 C64.39747622 69.93580765 65.95752294 70.53139177 67.51660156 71.12939453 C67.51660156 71.78939453 67.51660156 72.44939453 67.51660156 73.12939453 C69.49660156 73.78939453 71.47660156 74.44939453 73.51660156 75.12939453 C73.51660156 75.78939453 73.51660156 76.44939453 73.51660156 77.12939453 C75.16660156 77.78939453 76.81660156 78.44939453 78.51660156 79.12939453 C78.51660156 79.78939453 78.51660156 80.44939453 78.51660156 81.12939453 C79.17660156 81.12939453 79.83660156 81.12939453 80.51660156 81.12939453 C80.51660156 81.78939453 80.51660156 82.44939453 80.51660156 83.12939453 C81.17660156 83.12939453 81.83660156 83.12939453 82.51660156 83.12939453 C84.94820761 86.49623368 85.51660156 87.86289817 85.51660156 92.12939453 C86.17660156 92.12939453 86.83660156 92.12939453 87.51660156 92.12939453 C89.30069959 95.191862 89.74540178 97.35018726 89.64160156 100.87939453 C89.62355469 101.67861328 89.60550781 102.47783203 89.58691406 103.30126953 C89.56371094 103.90455078 89.54050781 104.50783203 89.51660156 105.12939453 C90.17660156 105.12939453 90.83660156 105.12939453 91.51660156 105.12939453 C91.51660156 111.39939453 91.51660156 117.66939453 91.51660156 124.12939453 C90.85660156 124.12939453 90.19660156 124.12939453 89.51660156 124.12939453 C89.51660156 127.42939453 89.51660156 130.72939453 89.51660156 134.12939453 C88.85660156 134.12939453 88.19660156 134.12939453 87.51660156 134.12939453 C87.56816406 134.84482422 87.61972656 135.56025391 87.67285156 136.29736328 C87.4905741 139.60114234 86.56632915 141.53615531 85.01660156 144.44189453 C84.55253906 145.32490234 84.08847656 146.20791016 83.61035156 147.11767578 C83.24941406 147.78154297 82.88847656 148.44541016 82.51660156 149.12939453 C81.85660156 149.12939453 81.19660156 149.12939453 80.51660156 149.12939453 C80.51660156 149.78939453 80.51660156 150.44939453 80.51660156 151.12939453 C79.85660156 151.12939453 79.19660156 151.12939453 78.51660156 151.12939453 C78.51660156 151.78939453 78.51660156 152.44939453 78.51660156 153.12939453 C77.14160156 154.75439453 77.14160156 154.75439453 75.51660156 156.12939453 C74.85660156 156.12939453 74.19660156 156.12939453 73.51660156 156.12939453 C73.51660156 156.78939453 73.51660156 157.44939453 73.51660156 158.12939453 C72.106172 158.97324128 70.68796024 159.80408949 69.26660156 160.62939453 C68.47769531 161.09345703 67.68878906 161.55751953 66.87597656 162.03564453 C64.51660156 163.12939453 64.51660156 163.12939453 60.51660156 163.12939453 C60.51660156 163.78939453 60.51660156 164.44939453 60.51660156 165.12939453 C58.53660156 165.12939453 56.55660156 165.12939453 54.51660156 165.12939453 C54.51660156 165.78939453 54.51660156 166.44939453 54.51660156 167.12939453 C53.85660156 167.12939453 53.19660156 167.12939453 52.51660156 167.12939453 C52.51660156 168.11939453 52.51660156 169.10939453 52.51660156 170.12939453 C32.38660156 170.12939453 12.25660156 170.12939453 -8.48339844 170.12939453 C-8.48339844 169.13939453 -8.48339844 168.14939453 -8.48339844 167.12939453 C-11.78339844 166.46939453 -15.08339844 165.80939453 -18.48339844 165.12939453 C-18.48339844 164.46939453 -18.48339844 163.80939453 -18.48339844 163.12939453 C-19.37027344 163.21189453 -20.25714844 163.29439453 -21.17089844 163.37939453 C-25.48339844 163.12939453 -25.48339844 163.12939453 -38.48339844 159.12939453 C-38.48339844 146.25939453 -38.48339844 133.38939453 -38.48339844 120.12939453 C-36.83339844 120.12939453 -35.18339844 120.12939453 -33.48339844 120.12939453 C-33.48339844 120.78939453 -33.48339844 121.44939453 -33.48339844 122.12939453 C-31.50339844 122.45939453 -29.52339844 122.78939453 -27.48339844 123.12939453 C-27.48339844 123.78939453 -27.48339844 124.44939453 -27.48339844 125.12939453 C-25.83339844 125.12939453 -24.18339844 125.12939453 -22.48339844 125.12939453 C-22.48339844 125.78939453 -22.48339844 126.44939453 -22.48339844 127.12939453 C-21.16339844 127.12939453 -19.84339844 127.12939453 -18.48339844 127.12939453 C-18.48339844 127.78939453 -18.48339844 128.44939453 -18.48339844 129.12939453 C-16.83339844 129.12939453 -15.18339844 129.12939453 -13.48339844 129.12939453 C-13.48339844 129.78939453 -13.48339844 130.44939453 -13.48339844 131.12939453 C-11.96746094 131.31501953 -11.96746094 131.31501953 -10.42089844 131.50439453 C-3.76925887 132.33434594 2.87292072 133.23838004 9.51660156 134.12939453 C9.51660156 134.78939453 9.51660156 135.44939453 9.51660156 136.12939453 C12.82946676 135.99119184 16.14178145 135.84255675 19.45410156 135.69189453 C20.39962891 135.65257812 21.34515625 135.61326172 22.31933594 135.57275391 C23.66801758 135.50991211 23.66801758 135.50991211 25.04394531 135.44580078 C25.87659912 135.40914307 26.70925293 135.37248535 27.56713867 135.3347168 C29.51999014 135.3357235 29.51999014 135.3357235 30.51660156 134.12939453 C32.19844104 133.89652445 33.88784316 133.71675287 35.57910156 133.56689453 C36.49820313 133.48310547 37.41730469 133.39931641 38.36425781 133.31298828 C39.07453125 133.25240234 39.78480469 133.19181641 40.51660156 133.12939453 C40.51660156 132.46939453 40.51660156 131.80939453 40.51660156 131.12939453 C42.18326823 129.46272786 43.8499349 127.7960612 45.51660156 126.12939453 C45.51660156 125.46939453 45.51660156 124.80939453 45.51660156 124.12939453 C46.17660156 124.12939453 46.83660156 124.12939453 47.51660156 124.12939453 C47.20214643 121.79344215 46.86624336 119.46033987 46.51660156 117.12939453 C46.43410156 116.40751953 46.35160156 115.68564453 46.26660156 114.94189453 C45.1209092 112.17313798 42.84869192 110.92331019 40.51660156 109.12939453 C40.51660156 108.46939453 40.51660156 107.80939453 40.51660156 107.12939453 C35.19888006 105.88738701 29.93458829 104.82105241 24.51660156 104.12939453 C24.51660156 103.46939453 24.51660156 102.80939453 24.51660156 102.12939453 C23.52015625 102.16677734 22.52371094 102.20416016 21.49707031 102.24267578 C17.3932785 102.12588485 13.7603519 101.38804576 9.82910156 100.31689453 C8.42552863 99.94812738 7.02188199 99.57964063 5.61816406 99.21142578 C4.92883789 99.02789551 4.23951172 98.84436523 3.52929688 98.65527344 C-0.33835737 97.64472913 -4.236166 96.75288352 -8.12792969 95.84033203 C-10.48339844 95.12939453 -10.48339844 95.12939453 -13.48339844 93.12939453 C-13.48339844 92.46939453 -13.48339844 91.80939453 -13.48339844 91.12939453 C-14.47339844 91.12939453 -15.46339844 91.12939453 -16.48339844 91.12939453 C-16.48339844 90.46939453 -16.48339844 89.80939453 -16.48339844 89.12939453 C-17.80339844 89.12939453 -19.12339844 89.12939453 -20.48339844 89.12939453 C-20.48339844 88.46939453 -20.48339844 87.80939453 -20.48339844 87.12939453 C-21.80339844 86.79939453 -23.12339844 86.46939453 -24.48339844 86.12939453 C-24.48339844 85.46939453 -24.48339844 84.80939453 -24.48339844 84.12939453 C-25.08152344 83.84064453 -25.67964844 83.55189453 -26.29589844 83.25439453 C-28.48339844 82.12939453 -28.48339844 82.12939453 -31.48339844 80.12939453 C-31.48339844 79.13939453 -31.48339844 78.14939453 -31.48339844 77.12939453 C-32.14339844 77.12939453 -32.80339844 77.12939453 -33.48339844 77.12939453 C-34.33101666 75.42810368 -35.16088524 73.71796369 -35.98339844 72.00439453 C-36.67949219 70.57740234 -36.67949219 70.57740234 -37.38964844 69.12158203 C-38.5608796 65.91742822 -38.68415968 63.51222141 -38.48339844 60.12939453 C-39.14339844 60.12939453 -39.80339844 60.12939453 -40.48339844 60.12939453 C-40.48339844 52.53939453 -40.48339844 44.94939453 -40.48339844 37.12939453 C-39.82339844 37.12939453 -39.16339844 37.12939453 -38.48339844 37.12939453 C-38.48339844 34.81939453 -38.48339844 32.50939453 -38.48339844 30.12939453 C-37.82339844 30.12939453 -37.16339844 30.12939453 -36.48339844 30.12939453 C-36.35964844 29.24251953 -36.23589844 28.35564453 -36.10839844 27.44189453 C-35.53927107 24.42551951 -34.71725408 21.92613399 -33.48339844 19.12939453 C-32.82339844 19.12939453 -32.16339844 19.12939453 -31.48339844 19.12939453 C-31.48339844 18.13939453 -31.48339844 17.14939453 -31.48339844 16.12939453 C-30.82339844 16.12939453 -30.16339844 16.12939453 -29.48339844 16.12939453 C-29.48339844 15.46939453 -29.48339844 14.80939453 -29.48339844 14.12939453 C-28.82339844 14.12939453 -28.16339844 14.12939453 -27.48339844 14.12939453 C-27.48339844 13.46939453 -27.48339844 12.80939453 -27.48339844 12.12939453 C-25.86603584 10.73666563 -24.19089823 9.41001938 -22.48339844 8.12939453 C-21.78214844 7.55189453 -21.08089844 6.97439453 -20.35839844 6.37939453 C-18.48339844 5.12939453 -18.48339844 5.12939453 -15.48339844 5.12939453 C-15.48339844 4.46939453 -15.48339844 3.80939453 -15.48339844 3.12939453 C-14.16339844 3.12939453 -12.84339844 3.12939453 -11.48339844 3.12939453 C-11.48339844 2.46939453 -11.48339844 1.80939453 -11.48339844 1.12939453 C-7.59638251 0.21661796 -3.98864903 0.00279778 0 0 Z " fill="#FDFDFE" transform="translate(832.4833984375,81.87060546875)"/>
<path d="M0 0 C10.23 0 20.46 0 31 0 C31 0.66 31 1.32 31 2 C31.66 2 32.32 2 33 2 C36 6.38461538 36 6.38461538 36 9 C36.66 9 37.32 9 38 9 C38 9.66 38 10.32 38 11 C38.66 11 39.32 11 40 11 C40 11.66 40 12.32 40 13 C40.66 13 41.32 13 42 13 C45 17.38461538 45 17.38461538 45 20 C45.66 20 46.32 20 47 20 C47 20.66 47 21.32 47 22 C47.66 22 48.32 22 49 22 C49 22.66 49 23.32 49 24 C49.66 24 50.32 24 51 24 C54 28.38461538 54 28.38461538 54 31 C54.66 31 55.32 31 56 31 C56 31.66 56 32.32 56 33 C56.66 33 57.32 33 58 33 C58 33.66 58 34.32 58 35 C58.66 35 59.32 35 60 35 C63 39.38461538 63 39.38461538 63 42 C63.66 42 64.32 42 65 42 C65 42.66 65 43.32 65 44 C65.66 44 66.32 44 67 44 C67 44.66 67 45.32 67 46 C67.66 46 68.32 46 69 46 C70.34331654 47.99330842 71.67594012 49.99384866 73 52 C74.485 52.99 74.485 52.99 76 54 C76 54.99 76 55.98 76 57 C76.66 57 77.32 57 78 57 C78.495 58.98 78.495 58.98 79 61 C79.66 61 80.32 61 81 61 C81 61.66 81 62.32 81 63 C81.66 63 82.32 63 83 63 C83 63.66 83 64.32 83 65 C83.66 65 84.32 65 85 65 C88 69.38461538 88 69.38461538 88 72 C88.66 72 89.32 72 90 72 C90 72.66 90 73.32 90 74 C90.66 74 91.32 74 92 74 C92 74.66 92 75.32 92 76 C92.66 76 93.32 76 94 76 C97 80.38461538 97 80.38461538 97 83 C97.66 83 98.32 83 99 83 C99 83.66 99 84.32 99 85 C99.66 85 100.32 85 101 85 C101 85.66 101 86.32 101 87 C101.66 87 102.32 87 103 87 C103 87.66 103 88.32 103 89 C103.66 89 104.32 89 105 89 C105.33 90.65 105.66 92.3 106 94 C106.66 94 107.32 94 108 94 C108 94.66 108 95.32 108 96 C108.66 96 109.32 96 110 96 C110 96.66 110 97.32 110 98 C110.66 98 111.32 98 112 98 C112 98.66 112 99.32 112 100 C112.66 100 113.32 100 114 100 C117 104.38461538 117 104.38461538 117 107 C117.66 107 118.32 107 119 107 C119 107.66 119 108.32 119 109 C119.66 109 120.32 109 121 109 C121 109.66 121 110.32 121 111 C121.66 111 122.32 111 123 111 C123.680625 112.1446875 123.680625 112.1446875 124.375 113.3125 C125.81481606 116.07651455 125.81481606 116.07651455 128.1875 117.625 C128.785625 118.07875 129.38375 118.5325 130 119 C130 119.99 130 120.98 130 122 C130.66 122 131.32 122 132 122 C132.495 61.61 132.495 61.61 133 0 C141.25 0 149.5 0 158 0 C159.83855401 1.83855401 159.12620489 4.80069756 159.12698364 7.26367188 C159.12854363 7.92535622 159.13010362 8.58704056 159.13171089 9.26877594 C159.13572271 11.5021228 159.13253056 13.73540255 159.12939453 15.96875 C159.13074849 17.56331421 159.13252839 19.15787811 159.13470459 20.75244141 C159.13927955 25.09529379 159.13748911 29.43812252 159.1343255 33.78097534 C159.13180222 38.31557277 159.13413935 42.85016812 159.13571167 47.38476562 C159.13753346 55.0013058 159.13512681 62.61783629 159.13037109 70.234375 C159.12492846 79.05316188 159.12669111 87.87192565 159.1321975 96.69071198 C159.13672836 104.24822437 159.13737931 111.80572979 159.13475883 119.3632431 C159.13319591 123.88319783 159.1330027 128.40314167 159.13629532 132.9230957 C159.13917365 137.17145882 159.13719905 141.41979199 159.13140106 145.66815186 C159.13007326 147.23191274 159.13046792 148.79567613 159.13266373 150.35943604 C159.13537445 152.48510132 159.13199511 154.61066914 159.12698364 156.73632812 C159.1264181 158.52496277 159.1264181 158.52496277 159.12584114 160.34973145 C159 163 159 163 158 164 C153.73807138 164.36508857 149.46295176 164.37165396 145.1875 164.4375 C143.98544922 164.48326172 142.78339844 164.52902344 141.54492188 164.57617188 C138.25673409 164.61835164 135.23515729 164.5956697 132 164 C129.3046875 161.0703125 129.3046875 161.0703125 128 158 C126.67151309 156.99357052 125.33849671 155.99307821 124 155 C121 150.60714286 121 150.60714286 121 148 C120.34 148 119.68 148 119 148 C119 147.34 119 146.68 119 146 C118.34 146 117.68 146 117 146 C117 145.34 117 144.68 117 144 C116.34 144 115.68 144 115 144 C112 139.61538462 112 139.61538462 112 137 C111.34 137 110.68 137 110 137 C110 136.34 110 135.68 110 135 C109.34 135 108.68 135 108 135 C108 134.34 108 133.68 108 133 C107.34 133 106.68 133 106 133 C105.505 130.525 105.505 130.525 105 128 C104.34 128 103.68 128 103 128 C103 127.34 103 126.68 103 126 C102.34 126 101.68 126 101 126 C101 125.34 101 124.68 101 124 C100.34 124 99.68 124 99 124 C99 123.34 99 122.68 99 122 C98.34 122 97.68 122 97 122 C96.67 120.35 96.34 118.7 96 117 C95.34 117 94.68 117 94 117 C94 116.34 94 115.68 94 115 C93.34 115 92.68 115 92 115 C92 114.34 92 113.68 92 113 C91.34 113 90.68 113 90 113 C90 112.34 90 111.68 90 111 C89.34 111 88.68 111 88 111 C85 106.61538462 85 106.61538462 85 104 C84.34 104 83.68 104 83 104 C83 103.34 83 102.68 83 102 C82.34 102 81.68 102 81 102 C81 101.34 81 100.68 81 100 C80.34 100 79.68 100 79 100 C76 95.61538462 76 95.61538462 76 93 C75.34 93 74.68 93 74 93 C74 92.34 74 91.68 74 91 C73.34 91 72.68 91 72 91 C72 90.34 72 89.68 72 89 C71.34 89 70.68 89 70 89 C68.08152136 86.12228205 66.49920512 83.11373372 65 80 C64.34 80 63.68 80 63 80 C63 79.34 63 78.68 63 78 C62.34 78 61.68 78 61 78 C59.08152136 75.12228205 57.49920512 72.11373372 56 69 C55.34 69 54.68 69 54 69 C54 68.34 54 67.68 54 67 C53.34 67 52.68 67 52 67 C51.67 65.68 51.34 64.36 51 63 C50.34 63 49.68 63 49 63 C48.34 61.35 47.68 59.7 47 58 C46.34 58 45.68 58 45 58 C45 57.34 45 56.68 45 56 C44.34 56 43.68 56 43 56 C42.505 54.02 42.505 54.02 42 52 C41.34 52 40.68 52 40 52 C39.34 50.35 38.68 48.7 38 47 C37.34 47 36.68 47 36 47 C36 46.34 36 45.68 36 45 C35.34 45 34.68 45 34 45 C33.505 43.02 33.505 43.02 33 41 C32.34 41 31.68 41 31 41 C30.34 39.35 29.68 37.7 29 36 C28.34 36 27.68 36 27 36 C27 35.34 27 34.68 27 34 C26.34 34 25.68 34 25 34 C25 76.9 25 119.8 25 164 C16.75 164 8.5 164 0 164 C0 109.88 0 55.76 0 0 Z " fill="#DEDEE0" transform="translate(1278,83)"/>
<path d="M0 0 C15.84 0.33 31.68 0.66 48 1 C48 1.66 48 2.32 48 3 C48.66 3 49.32 3 50 3 C50 3.99 50 4.98 50 6 C50.66 6 51.32 6 52 6 C52 6.99 52 7.98 52 9 C52.66 9 53.32 9 54 9 C57 14.75 57 14.75 57 17 C57.66 17 58.32 17 59 17 C59 17.99 59 18.98 59 20 C59.66 20 60.32 20 61 20 C61 20.99 61 21.98 61 23 C61.66 23 62.32 23 63 23 C66 28.625 66 28.625 66 32 C66.66 32 67.32 32 68 32 C68 32.66 68 33.32 68 34 C68.66 34 69.32 34 70 34 C70 34.99 70 35.98 70 37 C70.66 37 71.32 37 72 37 C72.495 39.97 72.495 39.97 73 43 C73.66 43 74.32 43 75 43 C75 43.99 75 44.98 75 46 C75.66 46 76.32 46 77 46 C77 46.99 77 47.98 77 49 C77.66 49 78.32 49 79 49 C79 49.99 79 50.98 79 52 C79.66 52 80.32 52 81 52 C81.99 53.98 81.99 53.98 83 56 C83.33 55.01 83.66 54.02 84 53 C84.66 53 85.32 53 86 53 C86 52.01 86 51.02 86 50 C86.66 50 87.32 50 88 50 C88.12375 49.443125 88.2475 48.88625 88.375 48.3125 C89.05976855 45.77885636 89.99133763 43.42078968 91 41 C91.66 41 92.32 41 93 41 C93 40.01 93 39.02 93 38 C93.66 38 94.32 38 95 38 C95.268125 37.29875 95.53625 36.5975 95.8125 35.875 C97.0681449 32.8350176 98.50235123 29.9272226 100 27 C100.66 27 101.32 27 102 27 C102 26.01 102 25.02 102 24 C102.66 24 103.32 24 104 24 C104.268125 23.319375 104.53625 22.63875 104.8125 21.9375 C105.204375 20.968125 105.59625 19.99875 106 19 C106.45375 17.783125 106.9075 16.56625 107.375 15.3125 C109.10733964 11.78119227 109.61919321 11.46501628 113 10 C113.61067144 8.14255793 113.61067144 8.14255793 114 6 C114.82543945 3.4074707 114.82543945 3.4074707 117 1 C120.72269674 0.19520249 124.43409266 0.27912184 128.23046875 0.29296875 C129.33602615 0.27784744 130.44158356 0.26272614 131.5806427 0.24714661 C135.11646673 0.20411227 138.65143966 0.19541602 142.1875 0.1875 C144.58270517 0.16436808 146.97788992 0.13900549 149.37304688 0.11132812 C155.24870584 0.0483204 161.12403009 0.01351105 167 0 C167 1.65 167 3.3 167 5 C166.34 5 165.68 5 165 5 C163.92474806 7.65228812 162.90543849 10.28368454 162 13 C161.34 13 160.68 13 160 13 C160 13.66 160 14.32 160 15 C159.34 15 158.68 15 158 15 C158 15.99 158 16.98 158 18 C157.34 18 156.68 18 156 18 C156 18.99 156 19.98 156 21 C155.34 21 154.68 21 154 21 C153.67 22.65 153.34 24.3 153 26 C152.34 26 151.68 26 151 26 C151 26.99 151 27.98 151 29 C150.34 29 149.68 29 149 29 C149 29.99 149 30.98 149 32 C148.34 32 147.68 32 147 32 C145.92474806 34.65228812 144.90543849 37.28368454 144 40 C143.34 40 142.68 40 142 40 C142 40.99 142 41.98 142 43 C141.34 43 140.68 43 140 43 C140 43.99 140 44.98 140 46 C139.34 46 138.68 46 138 46 C136.92474806 48.65228812 135.90543849 51.28368454 135 54 C134.34 54 133.68 54 133 54 C133 54.99 133 55.98 133 57 C132.34 57 131.68 57 131 57 C131 57.66 131 58.32 131 59 C130.34 59 129.68 59 129 59 C127.92474806 61.65228812 126.90543849 64.28368454 126 67 C125.34 67 124.68 67 124 67 C124 67.99 124 68.98 124 70 C123.34 70 122.68 70 122 70 C122 70.99 122 71.98 122 73 C121.34 73 120.68 73 120 73 C118.92474806 75.65228812 117.90543849 78.28368454 117 81 C116.34 81 115.68 81 115 81 C115 81.99 115 82.98 115 84 C114.34 84 113.68 84 113 84 C113 84.99 113 85.98 113 87 C112.34 87 111.68 87 111 87 C111 87.66 111 88.32 111 89 C110.34 89 109.68 89 109 89 C108.67 90.98 108.34 92.96 108 95 C107.34 95 106.68 95 106 95 C106.00222061 95.87252411 106.00444122 96.74504822 106.00672913 97.64401245 C106.0267419 105.85499665 106.04197919 114.06597268 106.05181217 122.27697563 C106.05703728 126.49862582 106.06412822 130.72025591 106.07543945 134.94189453 C106.0862815 139.01376672 106.09227964 143.08561953 106.09487724 147.15750504 C106.09672911 148.71328156 106.10034518 150.26905698 106.10573006 151.82482529 C106.11295795 153.99896307 106.1139902 156.17302016 106.11352539 158.34716797 C106.115746 159.58626923 106.11796661 160.82537048 106.12025452 162.10202026 C106 165 106 165 105 167 C98.77038023 167.05059881 92.5408132 167.08569062 86.31103516 167.10986328 C84.1905723 167.11993751 82.07012339 167.13359733 79.94970703 167.15087891 C76.90654057 167.17506489 73.86355734 167.18646869 70.8203125 167.1953125 C69.39212692 167.21079636 69.39212692 167.21079636 67.93508911 167.22659302 C67.05432709 167.22674408 66.17356506 167.22689514 65.26611328 167.22705078 C64.48889923 167.231492 63.71168518 167.23593323 62.91091919 167.24050903 C61 167 61 167 59 165 C58.75949097 162.0640564 58.75949097 162.0640564 58.77294922 158.25537109 C58.77265717 157.56257553 58.77236511 156.86977997 58.77206421 156.1559906 C58.77345969 153.86167966 58.78903081 151.56769184 58.8046875 149.2734375 C58.80841686 147.68446022 58.8112642 146.09548064 58.81326294 144.50650024 C58.82090547 140.32085846 58.84055919 136.1353551 58.8626709 131.94976807 C58.88311604 127.68007276 58.8922618 123.41035513 58.90234375 119.140625 C58.92380457 110.76035309 58.95794789 102.38019375 59 94 C58.34 94 57.68 94 57 94 C57 93.01 57 92.02 57 91 C56.34 91 55.68 91 55 91 C52 85.25 52 85.25 52 83 C51.34 83 50.68 83 50 83 C50 82.01 50 81.02 50 80 C49.34 80 48.68 80 48 80 C48 79.01 48 78.02 48 77 C47.34 77 46.68 77 46 77 C45.35165346 75.730447 44.70642185 74.45930294 44.0625 73.1875 C43.70285156 72.47980469 43.34320312 71.77210938 42.97265625 71.04296875 C42 69 42 69 41 66 C40.34 66 39.68 66 39 66 C39 65.01 39 64.02 39 63 C38.34 63 37.68 63 37 63 C33.125 56.375 33.125 56.375 32 53 C31.34 53 30.68 53 30 53 C30 52.01 30 51.02 30 50 C29.34 50 28.68 50 28 50 C25 44.25 25 44.25 25 42 C24.34 42 23.68 42 23 42 C23 41.01 23 40.02 23 39 C22.34 39 21.68 39 21 39 C21 38.01 21 37.02 21 36 C20.34 36 19.68 36 19 36 C16.95830515 33.09451118 16 31.59857954 16 28 C15.34 28 14.68 28 14 28 C14 27.01 14 26.02 14 25 C13.34 25 12.68 25 12 25 C9.95830515 22.09451118 9 20.59857954 9 17 C8.34 17 7.68 17 7 17 C5.81640625 15.390625 5.81640625 15.390625 4.5625 13.25 C3.17594872 10.90890897 1.90081838 8.88428811 0.125 6.8125 C-1 5 -1 5 0 0 Z " fill="#FDFDFE" transform="translate(924,82)"/>
<path d="M0 0 C8.25 0 16.5 0 25 0 C26.90340115 1.90340115 26.17499006 5.28845786 26.20532227 7.81469727 C26.21522186 8.52685394 26.22512146 9.23901062 26.23532104 9.9727478 C26.26702212 12.33726628 26.29172724 14.70180489 26.31640625 17.06640625 C26.33696836 18.70166052 26.35796463 20.33690938 26.37937927 21.97215271 C26.43467672 26.28428786 26.48405201 30.59647158 26.53222656 34.90869141 C26.58238572 39.30570824 26.63810087 43.7026542 26.69335938 48.09960938 C26.80103473 56.73301307 26.90245871 65.3664759 27 74 C27.66 74 28.32 74 29 74 C29 73.34 29 72.68 29 72 C29.66 72 30.32 72 31 72 C31 71.34 31 70.68 31 70 C33.375 67.375 33.375 67.375 36 65 C36.66 65 37.32 65 38 65 C38 64.34 38 63.68 38 63 C39.98 62.505 39.98 62.505 42 62 C42 61.34 42 60.68 42 60 C42.66 60 43.32 60 44 60 C44.33 59.01 44.66 58.02 45 57 C45.66 57 46.32 57 47 57 C47 56.34 47 55.68 47 55 C48.98 54.505 48.98 54.505 51 54 C51 53.34 51 52.68 51 52 C52.375 50.375 52.375 50.375 54 49 C54.66 49 55.32 49 56 49 C56 48.34 56 47.68 56 47 C56.66 47 57.32 47 58 47 C58 46.34 58 45.68 58 45 C60.375 42.375 60.375 42.375 63 40 C63.66 40 64.32 40 65 40 C65 39.34 65 38.68 65 38 C66.65 37.34 68.3 36.68 70 36 C70 35.34 70 34.68 70 34 C70.66 34 71.32 34 72 34 C72 33.34 72 32.68 72 32 C73.32 31.67 74.64 31.34 76 31 C76 30.34 76 29.68 76 29 C76.66 29 77.32 29 78 29 C78 28.34 78 27.68 78 27 C79.375 25.375 79.375 25.375 81 24 C81.66 24 82.32 24 83 24 C83 23.34 83 22.68 83 22 C83.66 22 84.32 22 85 22 C85 21.34 85 20.68 85 20 C86.3203125 18.66796875 86.3203125 18.66796875 88.125 17.1875 C89.08019531 16.39472656 89.08019531 16.39472656 90.0546875 15.5859375 C90.69664063 15.06257813 91.33859375 14.53921875 92 14 C96.00599645 10.73880458 96.00599645 10.73880458 99.75 7.1875 C101 6 101 6 103 6 C103 5.34 103 4.68 103 4 C103.66 4 104.32 4 105 4 C105 3.34 105 2.68 105 2 C105.66 2 106.32 2 107 2 C107 1.34 107 0.68 107 0 C118.88 0 130.76 0 143 0 C143 0.99 143 1.98 143 3 C142.34 3 141.68 3 141 3 C141 3.66 141 4.32 141 5 C140.34 5 139.68 5 139 5 C139 5.66 139 6.32 139 7 C134.52941176 11 134.52941176 11 132 11 C132 11.66 132 12.32 132 13 C128.53846154 16 128.53846154 16 126 16 C125.67 17.32 125.34 18.64 125 20 C123.68 20.33 122.36 20.66 121 21 C121 21.66 121 22.32 121 23 C120.34 23 119.68 23 119 23 C119 23.66 119 24.32 119 25 C118.34 25 117.68 25 117 25 C116.505 26.485 116.505 26.485 116 28 C115.34 28 114.68 28 114 28 C114 28.66 114 29.32 114 30 C112.68 30.33 111.36 30.66 110 31 C110 31.66 110 32.32 110 33 C108.625 34.625 108.625 34.625 107 36 C106.34 36 105.68 36 105 36 C105 36.66 105 37.32 105 38 C101.53846154 41 101.53846154 41 99 41 C98.67 42.32 98.34 43.64 98 45 C97.34 45 96.68 45 96 45 C96 45.66 96 46.32 96 47 C94.02053408 48.36363208 92.0180755 49.69418644 90 51 C89.4225 51.5775 88.845 52.155 88.25 52.75 C87.8375 53.1625 87.425 53.575 87 54 C86.34 54 85.68 54 85 54 C85 54.66 85 55.32 85 56 C84.34 56 83.68 56 83 56 C83 56.66 83 57.32 83 58 C81.625 59.625 81.625 59.625 80 61 C79.34 61 78.68 61 78 61 C78 61.66 78 62.32 78 63 C77.34 63 76.68 63 76 63 C76 63.66 76 64.32 76 65 C74.5390625 66.5078125 74.5390625 66.5078125 72.625 68.125 C71.99851562 68.66382813 71.37203125 69.20265625 70.7265625 69.7578125 C69 71 69 71 67 71 C67 71.99 67 72.98 67 74 C67.66 74 68.32 74 69 74 C69 74.66 69 75.32 69 76 C69.66 76 70.32 76 71 76 C74 79.46153846 74 79.46153846 74 82 C74.66 82 75.32 82 76 82 C76 82.66 76 83.32 76 84 C76.66 84 77.32 84 78 84 C78 84.66 78 85.32 78 86 C78.66 86 79.32 86 80 86 C80 86.66 80 87.32 80 88 C80.66 88 81.32 88 82 88 C82.33 89.32 82.66 90.64 83 92 C83.66 92 84.32 92 85 92 C85 92.66 85 93.32 85 94 C86.98 94.495 86.98 94.495 89 95 C89.33 96.32 89.66 97.64 90 99 C90.66 99 91.32 99 92 99 C92 99.66 92 100.32 92 101 C92.66 101 93.32 101 94 101 C94 101.66 94 102.32 94 103 C94.66 103 95.32 103 96 103 C96 103.66 96 104.32 96 105 C96.66 105 97.32 105 98 105 C100.625 107.375 100.625 107.375 103 110 C103 110.66 103 111.32 103 112 C103.66 112 104.32 112 105 112 C105 112.66 105 113.32 105 114 C105.66 114 106.32 114 107 114 C110 117.46153846 110 117.46153846 110 120 C110.66 120 111.32 120 112 120 C112 120.66 112 121.32 112 122 C112.66 122 113.32 122 114 122 C114 122.66 114 123.32 114 124 C114.66 124 115.32 124 116 124 C119 127.46153846 119 127.46153846 119 130 C119.66 130 120.32 130 121 130 C121 130.66 121 131.32 121 132 C122.32 132.33 123.64 132.66 125 133 C125.33 134.32 125.66 135.64 126 137 C126.66 137 127.32 137 128 137 C128 137.66 128 138.32 128 139 C128.66 139 129.32 139 130 139 C130 139.66 130 140.32 130 141 C130.66 141 131.32 141 132 141 C132 141.66 132 142.32 132 143 C132.66 143 133.32 143 134 143 C136.625 145.375 136.625 145.375 139 148 C139 148.66 139 149.32 139 150 C139.66 150 140.32 150 141 150 C141 150.66 141 151.32 141 152 C141.66 152 142.32 152 143 152 C146 155.46153846 146 155.46153846 146 158 C146.66 158 147.32 158 148 158 C148 158.66 148 159.32 148 160 C148.66 160 149.32 160 150 160 C150 161.32 150 162.64 150 164 C139.11 164 128.22 164 117 164 C116.67 162.68 116.34 161.36 116 160 C115.34 160 114.68 160 114 160 C114 159.34 114 158.68 114 158 C113.34 158 112.68 158 112 158 C112 157.34 112 156.68 112 156 C110.68 155.67 109.36 155.34 108 155 C107.67 153.68 107.34 152.36 107 151 C106.34 151 105.68 151 105 151 C105 150.34 105 149.68 105 149 C104.34 149 103.68 149 103 149 C103 148.34 103 147.68 103 147 C102.34 147 101.68 147 101 147 C101 146.34 101 145.68 101 145 C100.34 145 99.68 145 99 145 C94 139.52380952 94 139.52380952 94 137 C93.34 137 92.68 137 92 137 C92 136.34 92 135.68 92 135 C91.34 135 90.68 135 90 135 C87.375 132.625 87.375 132.625 85 130 C85 129.34 85 128.68 85 128 C84.34 128 83.68 128 83 128 C83 127.34 83 126.68 83 126 C82.34 126 81.68 126 81 126 C80.67 124.68 80.34 123.36 80 122 C79.34 122 78.68 122 78 122 C78 121.34 78 120.68 78 120 C76.02 119.505 76.02 119.505 74 119 C74 118.34 74 117.68 74 117 C73.34 117 72.68 117 72 117 C71.67 115.68 71.34 114.36 71 113 C70.34 113 69.68 113 69 113 C69 112.34 69 111.68 69 111 C68.34 111 67.68 111 67 111 C67 110.34 67 109.68 67 109 C66.34 109 65.68 109 65 109 C65 108.34 65 107.68 65 107 C64.34 107 63.68 107 63 107 C60 103.53846154 60 103.53846154 60 101 C59.34 101 58.68 101 58 101 C58 100.34 58 99.68 58 99 C57.34 99 56.68 99 56 99 C56 98.34 56 97.68 56 97 C55.34 97 54.68 97 54 97 C52.375 95.625 52.375 95.625 51 94 C51 93.34 51 92.68 51 92 C50.34 92 49.68 92 49 92 C49 91.34 49 90.68 49 90 C46.525 90.99 46.525 90.99 44 92 C44 92.66 44 93.32 44 94 C43.34 94 42.68 94 42 94 C42 94.66 42 95.32 42 96 C40.02 96.495 40.02 96.495 38 97 C38 97.66 38 98.32 38 99 C37.34 99 36.68 99 36 99 C35.731875 99.639375 35.46375 100.27875 35.1875 100.9375 C34 103 34 103 31 104 C31 104.66 31 105.32 31 106 C30.34 106 29.68 106 29 106 C29 106.66 29 107.32 29 108 C28.01 108.495 28.01 108.495 27 109 C26.9845388 110.01144325 26.9845388 110.01144325 26.96876526 111.0433197 C26.86094231 118.03443582 26.74632557 125.02541667 26.62768555 132.01635742 C26.58425876 134.62863344 26.54258962 137.24093928 26.50268555 139.85327148 C26.44516993 143.59888719 26.38142236 147.34435169 26.31640625 151.08984375 C26.29133751 152.85387794 26.29133751 152.85387794 26.26576233 154.65354919 C26.24581711 155.73459427 26.22587189 156.81563934 26.20532227 157.92944336 C26.18977798 158.88652695 26.1742337 159.84361053 26.15821838 160.82969666 C26 163 26 163 25 164 C16.75 164 8.5 164 0 164 C0 109.88 0 55.76 0 0 Z " fill="#DEDEE0" transform="translate(1456,83)"/>
<path d="M0 0 C8.25 0 16.5 0 25 0 C25 45.87 25 91.74 25 139 C54.7 139 84.4 139 115 139 C115 147.25 115 155.5 115 164 C77.05 164 39.1 164 0 164 C0 109.88 0 55.76 0 0 Z " fill="#DEDEE0" transform="translate(1113,83)"/>
<path d="M0 0 C8.25 0 16.5 0 25 0 C25 54.12 25 108.24 25 164 C16.75 164 8.5 164 0 164 C0 109.88 0 55.76 0 0 Z " fill="#DEDEE0" transform="translate(1233,83)"/>
<path d="M0 0 C3.35620271 1.38877354 5.07298728 2.91677965 7 6 C7 6.66 7 7.32 7 8 C7.66 8 8.32 8 9 8 C9 9.32 9 10.64 9 12 C1.25 11.25 1.25 11.25 -1 9 C0.32 9 1.64 9 3 9 C3.26218749 5.85375007 3.24754367 4.38162983 1.5 1.6875 C1.005 1.130625 0.51 0.57375 0 0 Z " fill="#6A7074" transform="translate(432,200)"/>
<path d="M0 0 C0.33 0 0.66 0 1 0 C1.93838047 6.89836454 2.13645572 12.33928512 0 19 C-1.32 19 -2.64 19 -4 19 C-5.60337726 16.74339496 -6.76582217 14.46835565 -8 12 C-7.401875 12.309375 -6.80375 12.61875 -6.1875 12.9375 C-3.91043228 14.10209704 -3.91043228 14.10209704 -1 15 C-0.67 10.05 -0.34 5.1 0 0 Z " fill="#383F42" transform="translate(371,272)"/>
<path d="M0 0 C0.66 0.33 1.32 0.66 2 1 C0.92492371 2.29854721 -0.16043736 3.58858361 -1.25 4.875 C-1.85328125 5.59429687 -2.4565625 6.31359375 -3.078125 7.0546875 C-5 9 -5 9 -7.171875 10.0703125 C-9.36169337 10.91462673 -9.36169337 10.91462673 -10 14 C-10.33 13.34 -10.66 12.68 -11 12 C-9.92338719 10.5574598 -8.83839897 9.12116839 -7.75 7.6875 C-6.84507813 6.48673828 -6.84507813 6.48673828 -5.921875 5.26171875 C-4.09729864 3.11450388 -2.31702954 1.58398701 0 0 Z " fill="#6F7377" transform="translate(102,253)"/>
<path d="M0 0 C1.32 0 2.64 0 4 0 C3.40138258 2.35171131 2.73075648 4.6859378 2 7 C1.01 7.495 1.01 7.495 0 8 C0 5.36 0 2.72 0 0 Z " fill="#F0F0F1" transform="translate(1113,83)"/>
<path d="M0 0 C0.66 0.33 1.32 0.66 2 1 C1.2884375 1.6496875 1.2884375 1.6496875 0.5625 2.3125 C-1.23686957 4.02309613 -1.23686957 4.02309613 -2 7 C-2.99 7 -3.98 7 -5 7 C-5 6.01 -5 5.02 -5 4 C-2.5 1.8125 -2.5 1.8125 0 0 Z " fill="#1F272B" transform="translate(95,284)"/>
<path d="M0 0 C0.33 0 0.66 0 1 0 C1 2.64 1 5.28 1 8 C0.67 8 0.34 8 0 8 C0 5.36 0 2.72 0 0 Z " fill="#FDFDFE" transform="translate(2111,120)"/>
<path d="M0 0 C2 1 2 1 2 1 Z " fill="#FDFDFE" transform="translate(1979,248)"/>
<path d="M0 0 C2 1 2 1 2 1 Z " fill="#FDFDFE" transform="translate(1778,248)"/>
<path d="M0 0 C2 1 2 1 2 1 Z " fill="#FDFDFE" transform="translate(1738,248)"/>
<path d="M0 0 C2 1 2 1 2 1 Z " fill="#FDFDFE" transform="translate(1671,248)"/>
<path d="" fill="#DEDEE0" transform="translate(0,0)"/>
</svg>
